<svg width="335" height="140" viewBox="0 0 335 140" version="1.1" xmlns="http://www.w3.org/2000/svg" xmlns:xlink="http://www.w3.org/1999/xlink">
<title>Frame 2</title>
<desc>Created using Figma</desc>
<g id="Canvas" transform="translate(4558 1346)">
<clipPath id="clip-0" clip-rule="evenodd">
<path d="M -4558 -1346L -4223 -1346L -4223 -1206L -4558 -1206L -4558 -1346Z" fill="#FFFFFF"/>
</clipPath>
<g id="Frame 2" clip-path="url(#clip-0)">
<g id="Logo">
<g id="Vector">
<use xlink:href="#path0_fill" transform="translate(-4471 -1322)" fill="#2B2B37"/>
</g>
<g id="Vector">
<use xlink:href="#path1_fill" transform="translate(-4468.43 -1275.41)" fill="#38F06E"/>
</g>
</g>
</g>
</g>
<defs>
<path id="path0_fill" d="M 18.7613 16.0298C 17.8022 14.8699 16.5938 13.9427 15.2266 13.3176C 13.9289 12.7321 12.5271 12.4141 11.1044 12.3824C 9.5316 12.3313 7.96468 12.5985 6.49714 13.168C 5.1787 13.6864 3.98156 14.4729 2.9811 15.478C 2.00275 16.4733 1.24619 17.6655 0.761425 18.9757C -0.25381 21.8369 -0.25381 24.9617 0.761425 27.823C 1.24266 29.1432 1.99941 30.3453 2.9811 31.3488C 3.98052 32.3551 5.17795 33.1418 6.49714 33.6588C 7.96468 34.2283 9.5316 34.4955 11.1044 34.4444C 12.5271 34.4126 13.9289 34.0946 15.2266 33.5091C 16.5939 32.8843 17.8024 31.957 18.7613 30.797L 16.3458 28.9265C 15.7991 29.7407 15.0711 30.4163 14.2194 30.8999C 13.2733 31.447 12.1963 31.725 11.1044 31.7041C 9.97795 31.7536 8.85436 31.5557 7.81216 31.1243C 6.87071 30.7491 6.01895 30.1786 5.3127 29.4503C 4.61136 28.6771 4.07781 27.7663 3.74586 26.7755C 3.03011 24.6043 3.03011 22.2598 3.74586 20.0886C 4.07923 19.1013 4.61268 18.1938 5.3127 17.4233C 6.00663 16.6705 6.85227 16.0744 7.79351 15.6744C 8.83587 15.2436 9.95934 15.0457 11.0857 15.0945C 12.1777 15.0737 13.2546 15.3517 14.2007 15.8988C 15.0523 16.3827 15.7802 17.0582 16.3271 17.8722L 18.7427 16.0017L 18.7613 16.0298ZM 25.8307 33.9393L 28.7872 33.9393L 28.7872 23.1655C 28.7217 21.6148 29.0423 20.072 29.7198 18.6765C 30.2081 17.7266 30.9029 16.8988 31.753 16.2542C 32.382 15.7619 33.111 15.4139 33.8887 15.2348C 34.3084 15.1613 34.7318 15.1113 35.1571 15.0852C 37.3332 15.0852 38.8255 15.7087 39.6337 16.9556C 40.538 18.5933 40.9585 20.4553 40.8462 22.3238L 40.8462 33.9393L 43.8026 33.9393L 43.8026 20.603C 43.9463 18.4067 43.2604 16.2365 41.8814 14.5241C 40.5819 13.1274 38.5892 12.4291 35.9032 12.4291C 35.2001 12.4312 34.5004 12.5287 33.8234 12.7191C 33.1294 12.9091 32.4597 13.179 31.8276 13.5234C 31.2118 13.861 30.6415 14.2758 30.1302 14.7579C 29.6394 15.2176 29.2183 15.747 28.8804 16.329L 28.7872 16.329L 28.7872 3.5676e-08L 25.8307 3.5676e-08L 25.8307 33.9393ZM 67.3331 23.4835L 67.3331 25.0079C 67.3381 25.8982 67.2091 26.7842 66.9507 27.6359C 66.7146 28.4335 66.3077 29.1698 65.7584 29.7934C 65.2091 30.4169 64.5306 30.9126 63.7704 31.2459C 62.887 31.6248 61.933 31.8097 60.9725 31.7883C 60.3759 31.7876 59.7814 31.7186 59.2005 31.5826C 58.6362 31.4546 58.0993 31.2265 57.615 30.9092C 57.1447 30.6004 56.7546 30.1836 56.4772 29.6934C 56.1792 29.1499 56.0311 28.5365 56.0482 27.9165C 56.0269 27.4474 56.1154 26.9798 56.3065 26.5511C 56.4976 26.1224 56.786 25.7445 57.1487 25.4475C 57.926 24.8244 58.8252 24.3719 59.788 24.1195C 60.8427 23.8299 61.9238 23.6481 63.015 23.577C 64.1341 23.5022 65.0668 23.4648 65.8129 23.4648L 67.3331 23.4835ZM 65.8595 21.0613C 64.616 21.0613 63.2357 21.1205 61.7186 21.239C 60.2657 21.3592 58.8355 21.6737 57.4658 22.1742C 56.1989 22.6138 55.0611 23.3626 54.1549 24.3533C 53.2195 25.4761 52.7459 26.9141 52.8306 28.3747C 52.8089 29.3029 53.0172 30.2219 53.4368 31.0495C 53.831 31.8 54.3812 32.457 55.0502 32.9761C 55.7371 33.5089 56.5189 33.9057 57.3538 34.1451C 58.2263 34.4009 59.1308 34.5301 60.0398 34.5285C 61.5331 34.5681 63.014 34.2473 64.358 33.5933C 65.6374 32.883 66.6985 31.8351 67.4263 30.5632L 67.5196 30.5632C 67.5196 31.1305 67.5414 31.7135 67.5849 32.312C 67.6284 32.9106 67.6999 33.453 67.7994 33.9393L 70.5973 33.9393C 70.5103 33.372 70.4294 32.6456 70.3548 31.7603C 70.2802 30.8749 70.2553 30.0426 70.2802 29.2632L 70.2802 19.911C 70.309 18.7724 70.096 17.6407 69.6553 16.5909C 69.2705 15.7122 68.7048 14.925 67.9952 14.2809C 67.2867 13.6569 66.4537 13.1915 65.5517 12.9155C 64.6044 12.6156 63.6166 12.4642 62.6232 12.4666C 58.6813 12.4666 55.7279 13.4828 53.7632 15.5154L 55.5539 17.629C 57.2925 16.0148 59.5825 15.1311 61.9518 15.16C 65.5331 15.16 67.3237 16.9712 67.3237 20.5937L 67.3237 21.1361L 65.8595 21.0613ZM 80.0915 12.9342C 80.1537 13.7135 80.2066 14.5365 80.2501 15.4032C 80.2936 16.2698 80.3154 16.9868 80.3154 17.5542L 80.3154 33.9393L 83.2718 33.9393L 83.2718 23.1655C 83.2064 21.6148 83.5269 20.072 84.2045 18.6765C 84.6928 17.7266 85.3876 16.8988 86.2376 16.2542C 86.8666 15.7619 87.5957 15.4139 88.3734 15.2348C 88.7864 15.1526 89.2036 15.0932 89.6231 15.0571C 91.7992 15.0571 93.2915 15.6806 94.0998 16.9276C 95.004 18.5652 95.4245 20.4272 95.3122 22.2958L 95.3122 33.9393L 98.2686 33.9393L 98.2686 20.603C 98.4123 18.4067 97.7264 16.2365 96.3474 14.5241C 95.0604 13.1274 93.0739 12.4291 90.3879 12.4291C 89.6847 12.4312 88.9851 12.5287 88.3081 12.7191C 87.6141 12.9091 86.9444 13.179 86.3122 13.5234C 85.6883 13.8503 85.1084 14.2557 84.5869 14.7298C 84.0961 15.1896 83.675 15.7189 83.3371 16.301L 83.2439 16.301C 83.2439 15.7336 83.2439 15.1725 83.2439 14.6176C 83.2439 14.0627 83.2066 13.5015 83.1319 12.9342L 80.0915 12.9342ZM 111.139 20.0512C 111.528 19.1004 112.091 18.2312 112.799 17.4887C 113.502 16.755 114.338 16.1616 115.261 15.7398C 116.224 15.2996 117.271 15.0761 118.33 15.0852C 119.467 15.0697 120.594 15.2927 121.641 15.7398C 122.587 16.1458 123.44 16.7409 124.149 17.4887C 124.839 18.2278 125.372 19.0996 125.716 20.0512C 126.081 21.0518 126.264 22.1097 126.257 23.1749C 126.302 24.3085 126.112 25.4392 125.698 26.4949C 125.312 27.4551 124.724 28.3199 123.972 29.0294C 122.455 30.4553 120.455 31.2508 118.376 31.2552C 117.318 31.2646 116.271 31.0411 115.308 30.6006C 114.384 30.1793 113.549 29.5858 112.846 28.8517C 112.137 28.1095 111.574 27.2402 111.186 26.2892C 110.38 24.2883 110.38 22.0521 111.186 20.0512L 111.139 20.0512ZM 107.8 40.4859C 109.049 41.8565 110.575 42.9437 112.277 43.675C 114.055 44.3879 115.958 44.7377 117.873 44.7038C 119.838 44.7823 121.795 44.4147 123.599 43.6283C 124.934 43.0103 126.106 42.0879 127.022 40.9348C 127.828 39.89 128.395 38.6798 128.682 37.3903C 128.956 36.1968 129.1 34.977 129.111 33.7523L 129.111 12.9342L 126.154 12.9342L 126.154 16.4319L 126.061 16.4319C 125.04 15.0105 123.654 13.8924 122.051 13.196C 121.375 12.9055 120.668 12.6953 119.943 12.5694C 119.284 12.4543 118.616 12.3948 117.947 12.3917C 116.482 12.3762 115.029 12.6594 113.676 13.2241C 112.41 13.755 111.268 14.5413 110.318 15.5341C 109.367 16.5368 108.614 17.7109 108.099 18.9944C 107.556 20.3496 107.283 21.7986 107.297 23.2591C 107.283 24.7241 107.572 26.176 108.145 27.5237C 108.686 28.799 109.479 29.9508 110.477 30.9092C 111.481 31.8662 112.659 32.6217 113.946 33.135C 115.305 33.6779 116.755 33.9511 118.218 33.9393C 119.716 33.934 121.196 33.6155 122.564 33.0041C 123.998 32.3512 125.211 31.2913 126.052 29.9553L 126.145 29.9553L 126.145 33.6962C 126.151 34.7802 126.006 35.8597 125.716 36.904C 125.456 37.8775 124.985 38.7813 124.336 39.5507C 123.645 40.3349 122.779 40.9439 121.808 41.3276C 120.595 41.7928 119.302 42.0152 118.003 41.9823C 116.387 42.0082 114.788 41.6458 113.34 40.9255C 112.011 40.269 110.854 39.3078 109.964 38.1198L 107.8 40.4859ZM 141.058 21.7814C 141.06 20.9067 141.267 20.0447 141.664 19.2656C 142.069 18.4574 142.616 17.7288 143.278 17.1146C 143.965 16.4756 144.761 15.9656 145.628 15.6089C 146.514 15.2354 147.465 15.0445 148.426 15.0478C 149.346 14.9933 150.267 15.1315 151.131 15.4535C 151.995 15.7756 152.782 16.2744 153.443 16.9182C 154.043 17.5719 154.507 18.3383 154.81 19.173C 155.113 20.0077 155.247 20.8942 155.206 21.7814L 141.058 21.7814ZM 158.424 24.2036L 158.424 22.8943C 158.431 21.5129 158.204 20.1403 157.752 18.8354C 157.33 17.6093 156.667 16.4804 155.803 15.5154C 154.926 14.5491 153.859 13.7753 152.669 13.2428C 151.328 12.6585 149.878 12.3683 148.417 12.3917C 146.988 12.3802 145.572 12.6635 144.257 13.2241C 142.995 13.7614 141.853 14.5469 140.899 15.5341C 139.931 16.5412 139.171 17.7298 138.661 19.0318C 138.116 20.432 137.843 21.9242 137.859 23.4274C 137.845 24.9331 138.127 26.4268 138.689 27.823C 139.211 29.1231 139.977 30.3105 140.946 31.3207C 141.917 32.3185 143.082 33.1048 144.369 33.6307C 145.739 34.1918 147.207 34.4747 148.687 34.4631C 150.362 34.4764 152.02 34.1255 153.546 33.4343C 155.178 32.6443 156.598 31.4738 157.687 30.0207L 155.402 28.1503C 154.729 29.1814 153.833 30.0476 152.781 30.6848C 151.552 31.4419 150.129 31.8252 148.687 31.7883C 147.688 31.7986 146.697 31.6012 145.777 31.2085C 143.978 30.4372 142.538 29.01 141.748 27.2151C 141.326 26.2779 141.068 25.2752 140.983 24.2504L 158.424 24.2036Z"/>
<path id="path1_fill" d="M 1.28078e-06 43.4672L 7.51705 43.4672L 7.51705 10.9681L 7.6383 10.9681L 28.5294 43.4672L 38.0796 43.4672L 38.0796 1.0921L 30.5532 1.0921L 30.5532 32.5718L 30.4413 32.5718L 9.92326 1.0921L 1.28078e-06 1.0921L 1.28078e-06 43.4672ZM 50.0826 31.4963C 51.1205 34.1188 52.695 36.4941 54.7046 38.469C 56.7142 40.4439 59.1142 41.9745 61.7499 42.9622C 64.6193 44.0464 67.665 44.5856 70.7312 44.552C 73.8348 44.5503 76.9114 43.9732 79.8058 42.8499C 82.4565 41.8145 84.8731 40.2562 86.9125 38.2673C 88.9286 36.277 90.5158 33.8929 91.5756 31.2625C 92.7072 28.3848 93.2618 25.3117 93.2078 22.2189C 93.2529 19.0656 92.6859 15.9337 91.5383 12.9975C 90.4891 10.3451 88.901 7.9405 86.8752 5.93658C 84.8501 3.95905 82.4271 2.4381 79.7685 1.47555C 76.8594 0.430707 73.7831 -0.0670557 70.6939 0.00724309C 67.6277 -0.0263042 64.582 0.512842 61.7126 1.59713C 59.0782 2.5963 56.6801 4.13467 54.6712 6.11427C 52.6459 8.1295 51.0582 10.5431 50.008 13.2033C 48.8962 16.1596 48.3642 19.3034 48.4412 22.462C 48.3997 25.5542 48.967 28.6243 50.1106 31.4963L 50.0826 31.4963ZM 57.3385 16.0557C 58.003 14.2731 59.0072 12.6372 60.295 11.2393C 61.5778 9.8543 63.1341 8.75229 64.8649 8.00343C 66.7481 7.20042 68.7783 6.80218 70.8245 6.83439C 72.8732 6.80718 74.9054 7.20519 76.7933 8.00343C 78.5349 8.74745 80.1014 9.84985 81.3912 11.2393C 82.6785 12.6376 83.6826 14.2734 84.3477 16.0557C 85.0386 17.945 85.3799 19.9448 85.355 21.957C 85.3772 24.0971 85.0237 26.2245 84.3104 28.2417C 83.661 30.0763 82.6562 31.764 81.3539 33.2078C 80.0667 34.6143 78.5006 35.7356 76.756 36.4997C 74.873 37.3169 72.8388 37.7249 70.7872 37.6968C 68.7444 37.7275 66.7187 37.3193 64.8463 36.4997C 63.1126 35.7306 61.5566 34.6097 60.2763 33.2078C 58.9735 31.7644 57.9686 30.0766 57.3199 28.2417C 56.6092 26.2241 56.2588 24.0966 56.2847 21.957C 56.2678 19.9331 56.6219 17.9233 57.3292 16.0277L 57.3385 16.0557ZM 111.31 43.4672L 118.23 43.4672L 128.023 11.2019L 128.144 11.2019L 137.974 43.4672L 145.137 43.4672L 157.429 1.0921L 149.791 1.0921L 141.49 31.6179L 141.369 31.6179L 132.043 1.0921L 124.638 1.0921L 115.134 31.6179L 115.013 31.6179L 107.076 1.0921L 98.8036 1.0921L 111.31 43.4672Z"/>
</defs>
</svg>
