<svg xmlns="http://www.w3.org/2000/svg" width="134" height="35" viewBox="0 0 134 35"><g fill="none" fill-rule="evenodd"><path fill="#0093DD" d="M10.218 17.5l10.155 10.157 6.41-6.41c1.13-1.132 2.968-1.132 4.1 0 1.132 1.132 1.132 2.968 0 4.1l-8.46 8.46c-1.127 1.126-2.983 1.116-4.1 0L6.12 21.602v7.256c0 1.593-1.306 2.9-2.9 2.9-1.6 0-2.898-1.3-2.898-2.9V6.142c0-1.6 1.298-2.9 2.9-2.9 1.6 0 2.898 1.3 2.898 2.9v7.256L18.323 1.193c1.117-1.116 2.973-1.127 4.1 0l8.46 8.46c1.132 1.13 1.132 2.967 0 4.1-1.132 1.13-2.97 1.132-4.1 0l-6.41-6.41L10.218 17.5zm10.16-2.902c1.602 0 2.9 1.3 2.9 2.902s-1.298 2.902-2.9 2.902c-1.603 0-2.903-1.3-2.903-2.902s1.3-2.902 2.902-2.902z"/><path fill="#68B92E" d="M43.926 4.87c-.982 0-1.797.814-1.797 1.796v21.668c0 .985.81 1.797 1.79 1.797s1.79-.81 1.79-1.79V6.67c0-.987-.82-1.8-1.8-1.8zm13.96.522c-.692-.694-1.845-.694-2.54 0L47.31 13.43c-.597.597-.517 1.524-.252 1.982l8 13.82c.482.836 1.61 1.155 2.454.66.844-.498 1.15-1.605.66-2.452l-7.256-12.536 6.972-6.97c.696-.698.696-1.845 0-2.542zm4.906 6.777c-.982 0-1.797.81-1.797 1.79v9.48c0 3.69 2.996 6.69 6.688 6.69h5.633c.978 0 1.796-.82 1.796-1.8V13.96c0-.986-.81-1.794-1.796-1.794-.982 0-1.797.813-1.797 1.794v12.574h-3.84c-1.71 0-3.1-1.386-3.1-3.095v-9.48c0-.99-.81-1.8-1.8-1.8zm31.106-5.51c0-.99-.815-1.8-1.797-1.8h-6.81c-3.69 0-6.68 2.99-6.68 6.68v11.89c0 3.69 3 6.69 6.69 6.69h6.82c.99 0 1.8-.82 1.8-1.8 0-.98-.81-1.8-1.8-1.8H85.3c-1.71 0-3.095-1.39-3.095-3.1V11.55c0-1.71 1.386-3.095 3.095-3.095h6.81c.982 0 1.795-.813 1.795-1.797zm20.98-1.8c-.985 0-1.796.81-1.796 1.79s.812 1.79 1.797 1.79c.98 0 1.79-.81 1.79-1.8s-.81-1.8-1.8-1.8zm0 7.3c-.985 0-1.796.81-1.796 1.79v14.37c0 .98.812 1.79 1.797 1.79.98 0 1.79-.81 1.79-1.8V13.97c0-.984-.81-1.796-1.8-1.796zm17.002 17.96c.982 0 1.797-.82 1.797-1.8v-9.47c0-3.7-2.995-6.69-6.688-6.69h-5.64c-.98 0-1.8.82-1.8 1.79v14.37c0 .98.81 1.79 1.79 1.79s1.79-.82 1.79-1.8V15.76h3.83c1.706 0 3.092 1.386 3.092 3.095v9.478c0 .983.81 1.796 1.794 1.796zM96.483 18.85c0-3.68 2.976-6.687 6.65-6.687h.447c3.66 0 6.618 3.015 6.618 6.684v4.59c0 3.67-2.958 6.68-6.618 6.685h-.447c-3.675.003-6.65-3.007-6.65-6.687v-4.59zm10.12 0c0-1.707-1.38-3.095-3.087-3.095h-.352c-1.706 0-3.088 1.39-3.088 3.097v4.587c0 1.7 1.382 3.09 3.088 3.09h.352c1.706 0 3.088-1.39 3.088-3.1v-4.59z"/></g></svg>